<svg id="Layer_1" data-name="Layer 1" xmlns="http://www.w3.org/2000/svg" viewBox="0 0 383.85 344.49"><defs><style>.cls-1{fill:#150a00;}.cls-1,.cls-2{stroke:#000;stroke-miterlimit:10;stroke-width:3px;}.cls-2{fill:#aa8100;}</style></defs><title>bench</title><rect class="cls-1" x="75.9" y="3.55" width="5.33" height="168.44"/><rect class="cls-1" x="309.92" y="3.55" width="5.33" height="168.44"/><rect class="cls-1" x="57.54" y="168.6" width="5.33" height="88.8" transform="translate(149.97 4.07) rotate(42.91)"/><rect class="cls-1" x="347.92" y="169.84" width="5.33" height="88.8" transform="translate(-65.66 270.92) rotate(-41.04)"/><rect class="cls-1" x="75.9" y="166.77" width="5.33" height="108.91"/><rect class="cls-1" x="365.65" y="234.08" width="5.33" height="108.91"/><rect class="cls-1" x="312.58" y="166.77" width="5.33" height="108.91"/><rect class="cls-1" x="19.87" y="234.08" width="5.33" height="108.91"/><rect class="cls-2" x="58.69" y="1.5" width="273.77" height="22.54"/><rect class="cls-2" x="58.69" y="32.16" width="273.77" height="22.54"/><rect class="cls-2" x="60.08" y="62.82" width="273.77" height="22.54"/><rect class="cls-2" x="58.69" y="93.83" width="273.77" height="22.54"/><rect class="cls-2" x="58.69" y="128.45" width="273.77" height="22.54"/><rect class="cls-2" x="58.69" y="158.78" width="273.77" height="22.54"/><polygon class="cls-2" points="347.21 199.99 37.38 199.99 48.36 187.13 340.36 188.8 347.21 199.99"/><polygon class="cls-2" points="364.19 218.66 20.71 218.66 32.89 205.81 356.6 207.47 364.19 218.66"/><polygon class="cls-2" points="380.86 236 3.73 236 17.1 223.14 372.52 224.81 380.86 236"/></svg>