<svg xmlns="http://www.w3.org/2000/svg" viewBox="0 0 1606 884"><defs><style>.cls-1{fill:#08f2f2;}.cls-2{fill:lime;}.cls-3{fill:#8d918d;}.cls-4{fill:#754c24;}.cls-4,.cls-5{stroke:#000;stroke-miterlimit:10;stroke-width:4px;}.cls-5{fill:#009245;}</style></defs><title>parkbackground</title><g id="Layer_1" data-name="Layer 1"><rect class="cls-1" x="77" y="2" width="1446" height="578"/><path d="M1400-24V550H-42V-24H1400m4-4H-46V554H1404V-28Z" transform="translate(121 28)"/><rect class="cls-2" x="48" y="561" width="1525" height="265"/><path d="M1450,535V796H-71V535H1450m4-4H-75V800H1454V531Z" transform="translate(121 28)"/><rect class="cls-3" x="2" y="681" width="1602" height="201"/><path d="M1481,655V852H-117V655H1481m4-4H-121V856H1485V651Z" transform="translate(121 28)"/></g><g id="Trees"><rect class="cls-4" x="1177" y="525" width="18" height="57"/><path class="cls-5" d="M988.51,503c-3.33,0-6.42-2.39-8.14-6.31a17.31,17.31,0,0,1-.27-12.82l76.49-199c1.65-4.28,4.88-7,8.41-7s6.77,2.68,8.41,7l76.49,199a17.31,17.31,0,0,1-.27,12.82c-1.72,3.92-4.81,6.31-8.14,6.31Z" transform="translate(121 28)"/><rect class="cls-4" x="379" y="525" width="18" height="57"/><path class="cls-5" d="M190.51,503c-3.33,0-6.42-2.39-8.14-6.31a17.31,17.31,0,0,1-.27-12.82l76.49-199c1.65-4.28,4.88-7,8.41-7s6.77,2.68,8.41,7l76.49,199a17.31,17.31,0,0,1-.27,12.82c-1.72,3.92-4.81,6.31-8.14,6.31Z" transform="translate(121 28)"/></g></svg>