<svg xmlns="http://www.w3.org/2000/svg" viewBox="0 0 99.41 72.88"><defs><style>.cls-1,.cls-6{fill:#baa058;}.cls-2{fill:none;}.cls-2,.cls-3,.cls-4,.cls-5,.cls-6{stroke:#000;stroke-miterlimit:10;}.cls-3{fill:#f4000d;}.cls-4{fill:#fff;}</style></defs><title>dogbody</title><g id="Layer_1" data-name="Layer 1"><path class="cls-1" d="M94.32,53a2.93,2.93,0,0,1-1.26-.28l-.74-.34a3,3,0,0,1-1.49-3.91L93,43.44a3,3,0,0,1,2.76-1.81,2.93,2.93,0,0,1,1.26.28l.74.34a3,3,0,0,1,1.49,3.91l-2.18,5.06a3,3,0,0,1-1.69,1.61A2.79,2.79,0,0,1,94.32,53Z" transform="translate(-0.6 -6.74)"/><path class="cls-2" d="M94.32,53a2.93,2.93,0,0,1-1.26-.28l-.74-.34a3,3,0,0,1-1.49-3.91L93,43.44a3,3,0,0,1,2.76-1.81,2.93,2.93,0,0,1,1.26.28l.74.34a3,3,0,0,1,1.49,3.91l-2.18,5.06a3,3,0,0,1-1.69,1.61A2.79,2.79,0,0,1,94.32,53Z" transform="translate(-0.6 -6.74)"/><path class="cls-1" d="M42.9,43.57a10.09,10.09,0,0,1-2.66-.36l-25.33-7a10,10,0,0,1-7-12.11l2.39-9.35A10,10,0,0,1,22.61,7.6l25.34,7a10,10,0,0,1,7,12.12l-2.39,9.34a10,10,0,0,1-9.69,7.52Z" transform="translate(-0.6 -6.74)"/><path class="cls-2" d="M42.9,43.57a10.09,10.09,0,0,1-2.66-.36l-25.33-7a10,10,0,0,1-7-12.11l2.39-9.35A10,10,0,0,1,22.61,7.6l25.34,7a10,10,0,0,1,7,12.12l-2.39,9.34a10,10,0,0,1-9.69,7.52Z" transform="translate(-0.6 -6.74)"/><path d="M7.87,28.55a30.51,30.51,0,0,0,18.82-3l-1.81-2.36a26.65,26.65,0,0,1-13.95,8.56c-1.87.46-1.08,3.36.8,2.89A29.46,29.46,0,0,0,27,25.3,1.51,1.51,0,0,0,25.18,23,27.08,27.08,0,0,1,8.66,25.66c-1.89-.29-2.7,2.6-.79,2.89Z" transform="translate(-0.6 -6.74)"/><ellipse class="cls-3" cx="10.77" cy="23.5" rx="10.27" ry="10.67"/><ellipse class="cls-4" cx="29.65" cy="8.78" rx="5.62" ry="4.06"/><ellipse class="cls-5" cx="31.47" cy="6.11" rx="2.3" ry="1.39"/></g><g id="spots"><path class="cls-6" d="M94.28,54.46c0,13.62-16,24.66-35.73,24.66s-35.73-11-35.73-24.66,16-24.67,35.73-24.67S94.28,40.83,94.28,54.46ZM59.48,67.23c-14.19,0-25.83-5-25.83,1.21S45.29,79.12,59.48,79.12s21-4.26,21-10.45S73.68,67.23,59.48,67.23Z" transform="translate(-0.6 -6.74)"/><ellipse class="cls-4" cx="68.06" cy="29.71" rx="7.78" ry="4.45"/><ellipse class="cls-4" cx="58.07" cy="60.49" rx="25.89" ry="11.89"/></g></svg>